<?xml version="1.0" encoding="UTF-8"?>
<svg id="_图层_2" data-name="图层 2" xmlns="http://www.w3.org/2000/svg" viewBox="0 0 574 250.75">
  <defs>
    <style>
      .cls-1 {
        fill: red;
      }
    </style>
  </defs>
  <path d="m497.5,38.63L125.68,24.74c-.59,42.06,9.15,114.62,72.44,146.19l-30.62,112.81h74l19.5-92.13c9.75,2,20.19,3.72,31.35,5.14l46.88,86.99h136.06l-42.18-112.48c53.49-41.01,64.38-132.64,64.38-132.64Z"/>
  <path class="cls-1" d="m210.5-386.25l-10,44h0c-26.19,11.96-43,38.1-43,66.9V59.43l42-20.41,42,20.41,39-28.91,38,34.24,16-14,17.9,14,28.1-21,24.62,21,23.38-17,29.91,17v-333.01c0-33.25-22.31-62.36-54.41-71.01l-11.08-2.99-4.42-37"/>
  <path class="cls-1" d="m164.03,144.68c.44-23.12,46.77-32.83,133.75-31.17,20.21.38,41.72,1.24,64.55,2.74l-.23,12.01c-18.44-.97-37.76-1.7-53.14-1.99-49.2-.94-66.85,2.73-67.18,19.99-.33,17.08,17.17,21.42,65.93,22.34,18.89.36,36.47.34,53.62-.14l-.22,11.74c-12.32.92-38.7,1.22-63.74.74-88.74-1.69-133.78-13.13-133.34-36.26Z"/>
</svg>