<?xml version="1.0" encoding="UTF-8"?>
<svg id="_图层_2" data-name="图层 2" xmlns="http://www.w3.org/2000/svg" viewBox="0 0 574 279.78">
  <defs>
    <style>
      .cls-1 {
        fill: #fff;
      }
    </style>
  </defs>
  <path d="m178.5-55v650h31.83l17.17-304h14.59s17.08,162.02,15.83,304h160.58V-55h-240Z"/>
  <g>
    <path class="cls-1" d="m209.87,165.92l-3.02-58.32c6.83-1.15,11.92-1.82,16.32-2.05,16.22-.84,23.6,3.99,24.2,15.65.35,6.71-2.3,11.17-7.9,12.99l.02.32c6.62.94,10.39,5.71,10.79,13.46.58,11.27-7.83,17.47-24.77,18.35-5.03.26-10.81.16-15.64-.39Zm15.57-35.09c6.23-.32,8.21-2.27,7.92-8.02-.26-4.95-2.93-7.06-8.12-6.79-1.6.08-3.19.32-5.33.68l.75,14.38,4.79-.25Zm10.74,17.15c-.29-5.59-2.95-7.54-10.14-7.17l-4.87.25.75,14.54c1.14.26,2.9.25,5.29.12,6.07-.31,9.21-3.04,8.97-7.75Z"/>
    <path class="cls-1" d="m267.97,163.43l-2.24-43.28c5.06-.73,8.15-1.07,11.08-1.22,15.62-.81,21.78,4.97,22.62,21.11.84,16.26-4.81,22.65-20.77,23.48-2.81.15-5.92.13-10.68-.09Zm21.16-22.91c-.58-11.11-2.72-14.05-10.03-13.67-1.46.08-2.28.18-3.08.45l1.44,27.84c2,.13,3.12.13,4.23.07,6.32-.33,8.04-3.35,7.45-14.69Z"/>
    <path class="cls-1" d="m302.34,120.48c-.19-3.68,1.31-5.29,5.05-5.48,3.8-.2,5.52,1.24,5.71,4.92.19,3.63-1.31,5.29-5.17,5.49-3.68.19-5.4-1.25-5.59-4.93Zm.95,9.33l9.77-.51,1.64,31.58-9.77.51-1.64-31.58Z"/>
    <path class="cls-1" d="m318.26,145.93c-.6-11.58,4.07-17.63,14.19-18.15.7-.04,1.41-.01,2.76.09l-.8-15.38,9.77-.51,2.45,47.26-8.95.46-.75-3.13h-.23c-1.69,2.5-4.31,3.93-7.53,4.1-6.78.35-10.38-4.51-10.91-14.74Zm17.63-4.9l-.33-6.32c-.84-.37-1.85-.55-3.08-.49-3.68.19-4.69,2.24-4.29,10.02.39,7.49,1.37,9.49,4.24,9.34,3.22-.17,3.96-2.79,3.45-12.55Z"/>
    <path class="cls-1" d="m361.93,115.05l10.06-.52,2.24,43.28-10.06.52-2.24-43.28Z"/>
    <path class="cls-1" d="m382.09,148.66l-.76-14.68-4.5.23-.42-8.19,5.09-.26.81-9.25,7.85-1.34.52,10.12,5.91-.31.42,8.19-5.85.3.63,12.22c.17,3.22,1.22,4.28,3.32,4.17.76-.04,1.75-.21,2.79-.55l.36,7.02c-1.56.49-3.48.77-5.35.86-6.78.35-10.52-2.62-10.82-8.53Z"/>
  </g>
  <path d="m161.88,348.5s-8.2-8.85-13.08-20.5h5.7V-134h-61v462h3.46l3.54,21,9,18,12,2v-5.76l-6-10.24,2-9,8,14s7,10,8,10,8-4,8-4c0,0,1-3.88,0-4.44s-4-9.56-4-9.56l-3-10,6-1s2,6,3,6,1,7,3,9,7,5.95,8,6.98c1,1.02,7-.98,7-.98l2-4-1.62-7.5Z"/>
</svg>