<?xml version="1.0" encoding="UTF-8"?>
<svg id="_图层_2" data-name="图层 2" xmlns="http://www.w3.org/2000/svg" viewBox="0 0 574 277.56">
  <defs>
    <style>
      .cls-1 {
        fill: #fff;
      }
    </style>
  </defs>
  <polygon points="160.34 -.5 166.04 21.24 151.27 54.14 161.71 93.42 146.12 122.32 155.54 175.23 140.35 198.85 151.7 240.86 135.31 265.64 151.66 309.5 403.18 309.5 417.1 273.5 400.97 248.35 412.76 206.61 397.82 182.64 407.8 129.95 392.52 100.69 403.37 61.66 388.95 28.42 396.89 -.5 160.34 -.5"/>
  <g>
    <path class="cls-1" d="m189.95,135.44c0-20.8,8.4-30.32,24.24-30.32,3.68,0,7.6.4,11.76,1.36v10.8c-3.36-.56-6.88-.88-9.68-.88-8.96,0-12.16,3.6-12.16,19.12s3.2,18.96,12.08,18.96c3.44,0,6.64-.32,9.76-1.04v10.56c-2.24,1.04-7.04,1.76-11.6,1.76-16.16,0-24.4-9.52-24.4-30.32Z"/>
    <path class="cls-1" d="m242.82,165.15v-43.34c5.09-.47,8.2-.64,11.13-.64,15.64,0,21.49,6.09,21.49,22.25s-5.97,22.37-21.96,22.37c-2.81,0-5.91-.18-10.66-.64Zm22.31-21.79c0-11.13-1.99-14.17-9.31-14.17-1.46,0-2.28.06-3.1.29v27.88c1.99.23,3.1.29,4.22.29,6.32,0,8.2-2.93,8.2-14.29Z"/>
    <path class="cls-1" d="m279.37,124.04c0-3.69,1.58-5.21,5.33-5.21s5.45,1.52,5.45,5.21-1.58,5.21-5.45,5.21-5.33-1.52-5.33-5.21Zm.47,9.37h9.78v31.62h-9.78v-31.62Z"/>
    <path class="cls-1" d="m293.95,150.28c0-11.6,4.98-17.39,15.11-17.39.7,0,1.41.06,2.75.23v-15.4h9.78v47.32h-8.96l-.59-3.16h-.23c-1.82,2.4-4.51,3.69-7.73,3.69-6.79,0-10.13-5.04-10.13-15.29Zm17.86-3.98v-6.33c-.82-.41-1.82-.64-3.05-.64-3.69,0-4.8,1.99-4.8,9.78s.88,9.55,3.75,9.55c3.22,0,4.1-2.58,4.1-12.36Z"/>
    <path class="cls-1" d="m339.16,121.7h10.07v43.34h-10.07v-43.34Z"/>
    <path class="cls-1" d="m357.55,156.31v-14.7h-4.51v-8.2h5.1l1.29-9.19,7.91-.94v10.13h5.92v8.2h-5.86v12.24c0,3.22,1,4.33,3.1,4.33.76,0,1.76-.12,2.81-.41v7.03c-1.58.41-3.51.59-5.39.59-6.79,0-10.37-3.16-10.37-9.08Z"/>
  </g>
</svg>