<?xml version="1.0" encoding="UTF-8"?>
<svg id="_图层_2" data-name="图层 2" xmlns="http://www.w3.org/2000/svg" viewBox="0 0 574 222.75">
  <defs>
    <style>
      .cls-1 {
        fill: #fff;
      }

      .cls-2 {
        fill: red;
      }
    </style>
  </defs>
  <path class="cls-2" d="m210.5,114.75l-10,44h0c-26.19,11.96-43,38.1-43,66.9v334.78l42-20.41,42,20.41,39-28.91,38,34.24,16-14,17.9,14,28.1-21,24.62,21,23.38-17,29.91,17V232.74c0-33.25-22.31-62.36-54.41-71.01l-11.08-2.99-4.42-37"/>
  <g>
    <path class="cls-2" d="m212.14,41.75h8.92l12.36-4s4.09-10,4.09-11-3.27-13-3.27-13c0,0-8.18-7-15.55-5l-10.64,3-6.55,16,4.91,10,5.73,4Z"/>
    <path d="m402.5,51.75c-3.94-.27-8.05-.53-12.29-.8l10.73-11.15-.43-12.52-4.03-6.74-9.15-4.11-14.52-1.59s-8.81,8.37-9.27,9.4c-.46,1.03-2.63,14.84-2.63,14.84,0,0,4.47,7.34,10.38,10.74-17.34-1-36-1.96-54.46-2.87l3.6-7.42,3.11-12.61s-6.34-8.75-7.19-9.27-12.77-4.07-12.77-4.07c0,0-10.26,3.27-12.44,10.58l-3.05,10.62,9.14,11.23c-8.64-.4-18.1-.79-26.21-1.15l5-4.09,2.24-7.96-.46-12.03s-7.89-6.17-8.79-6.42c-.89-.25-12.43-.35-12.43-.35,0,0-8.31,5.54-8.37,12.62v10.25s9.48,7.4,9.48,7.4c-35.27-1.54-61.19-2.53-61.19-2.53l-5.34,36.5-35.66-3.5-10,55,260,5s-4-32-3-83Z"/>
  </g>
  <polygon class="cls-2" points="397.5 93.75 452.23 81.75 444.5 125.75 390.5 111.75 397.5 93.75"/>
  <path class="cls-1" d="m217.49,54.75c-1.5,0-14.96,8.64-14.96,8.64l2.95,14.7s12.95,3.3,15.48,2.55,8.53-4.34,8.53-6.14v-12.47c0-1.89-7.68-7.28-7.68-7.28h-4.33Z"/>
  <path class="cls-1" d="m282.71,57.75c-1.72,0-17.18,9.79-17.18,9.79l3.39,16.67s14.87,3.74,17.78,2.89c2.9-.85,9.8-4.93,9.8-6.96v-14.14c0-2.15-8.82-8.26-8.82-8.26h-4.97Z"/>
  <path d="m278.17,72.75c-.67,0-6.64,3.81-6.64,3.81l1.31,6.49s5.75,1.46,6.87,1.13c1.12-.33,3.79-1.92,3.79-2.71v-5.51c0-.84-3.41-3.22-3.41-3.22h-1.92Z"/>
  <path d="m214.17,68.75c-.36,0-2.23.9-3.9,1.74s-2.44,2.62-2.02,4.36h0c.36,1.49,1.58,2.62,3.09,2.88,1.7.3,3.75.6,4.37.45,1.12-.27,3.79-1.58,3.79-2.24v-4.55c0-.45-1.42-1.42-2.43-2.06-.62-.39-1.33-.6-2.06-.6h-.84Z"/>
  <polygon points="257.5 80.75 312.5 80.75 311.5 111.75 256.5 111.75 257.5 80.75"/>
  <polygon points="195.5 76.75 250.5 76.75 249.5 107.75 194.5 107.75 195.5 76.75"/>
</svg>