<?xml version="1.0" encoding="UTF-8"?>
<svg id="_图层_2" data-name="图层 2" xmlns="http://www.w3.org/2000/svg" viewBox="0 0 574 334">
  <defs>
    <style>
      .cls-1 {
        fill: #fff;
      }

      .cls-2 {
        fill: red;
      }
    </style>
  </defs>
  <path d="m234.5,79c15.63-17.97,33-31,49.86-49.76,8.99-10.01,22.23-23.58,46.14-21.24,41,4,62,119,24,146-57,31-125.69,0-125.69,0l22.69-51-29-11,12-13Z"/>
  <path d="m178.5,279v650h31.83l17.17-304h14.59s17.08,162.02,15.83,304h160.58V279h-240Z"/>
  <path d="m83.5,182.64l418-7.64s-16.35,148.04-178.85,148.99S86.57,244.72,83.5,182.64Z"/>
  <path d="m161.88,682.5s-8.2-8.85-13.08-20.5h5.7V200h-61v462h3.46l3.54,21,9,18,12,2v-5.76l-6-10.24,2-9,8,14s7,10,8,10,8-4,8-4c0,0,1-3.88,0-4.44s-4-9.56-4-9.56l-3-10,6-1s2,6,3,6,1,7,3,9,7,5.95,8,6.98c1,1.02,7-.98,7-.98l2-4-1.62-7.5Z"/>
  <path class="cls-1" d="m244.12,218.67l-17.35-12.35-19.09-6.36-9.9,7.07,4.07,4.07,11.49,3,4.95,7.78-15.56-4.24s-12.02-2.12-12.73-1.41-2.83,8.49-2.83,8.49c0,0,2.04,3.45,3.14,3.14s9.59,3.93,9.59,3.93l9.19,4.95-3.54,4.95s-5.66-2.83-6.36-2.12-5.66-4.24-8.49-4.24-9.16.74-10.59.72c-1.43-.02-4.26,5.64-4.26,5.64l1.41,4.24,6.45,4.16s21.13.79,34.56,11.4c13.44,10.61,25.83-42.81,25.83-42.81Z"/>
  <path class="cls-2" d="m320.98,69.43c-.09-.62.3-3.51.58-5.46.17-1.15.83-2.16,1.81-2.78l2.75-1.73c.86-.54,1.9-.73,2.9-.53l2.15.44c.44.09.86.25,1.25.48l2.29,1.37c.69.41,1.24,1.02,1.57,1.75l.03.06.21-1.03-2-7-5.38-3h-7.62l-7,2-5,8s4,8,5,9c.77.77,6.84,2.12,10.07,2.71-1.47-1.45-3.5-3.65-3.59-4.29Z"/>
  <path class="cls-2" d="m284.04,64.45c-1.64-.94-4.77-2.77-4.87-3.17-.13-.54-.11-6.27.43-6.97.35-.46,2.51-2.08,3.98-3.16.86-.64,1.96-.86,3.01-.61l2.93.69c.74.17,1.39.58,1.89,1.13l-.18-.74c-.14-.59-.38-1.15-.72-1.65l-1.61-2.47c-.75-1.15-1.92-1.97-3.26-2.28l-4.26-1c-1.52-.36-3.12-.03-4.38.89-2.14,1.57-5.29,3.94-5.8,4.61-.78,1.02-.81,9.36-.62,10.15.14.58,4.69,3.25,7.09,4.62.93.53,1.99.77,3.06.69l2.38-.19c.47-.04.92-.16,1.36-.31-.14-.06-.29-.12-.43-.2Z"/>
  <polygon class="cls-2" points="501.61 175.5 483.61 303 435.5 330 206.24 265 233.5 212 423.23 265 441.23 175.5 501.61 175.5"/>
</svg>