<?xml version="1.0" encoding="UTF-8"?>
<svg id="_图层_2" data-name="图层 2" xmlns="http://www.w3.org/2000/svg" viewBox="0 0 574 346">
  <defs>
    <style>
      .cls-1 {
        fill: #fff;
      }

      .cls-2 {
        fill: red;
      }
    </style>
  </defs>
  <path class="cls-2" d="m265.37,69.94l-96.94,20.06-15.64,32.36c-8.36,17.29-1.35,38.09,15.76,46.8,20.86,10.62,45.58,22.91,50.9,24.32,9.55,2.53,125.86,0,125.86,0l33.27-14.91c18.46-8.28,28.98-28,25.58-47.94l-1.02-5.95-45.92-39.79-91.84-14.94Z"/>
  <g>
    <path d="m312,346c-6-61-19-112-22-139-9.9.22-39.44.97-49.04,2.01l-36.96,136.99h108Z"/>
    <path d="m532.64,346c-20.39-41.22-55.76-76.33-100.73-100.94l-16.76,28.49v-36.97c-31.57-14.72-67.14-24.51-105.07-28.07l1.69,137.49h220.86Z"/>
    <path d="m204.1,346l-1.99-5.55,31.25-130.52c-15.56,2.05-30.68,5.16-45.24,9.22l-12.19,48.31-14.22-39.65c-26.5,10.01-50.69,23.34-71.73,39.32l20.33,78.88h93.8Z"/>
  </g>
  <polygon points="81.31 277.26 78.28 346 102 346 81.31 277.26"/>
  <polygon class="cls-2" points="157 128 99 120 99 160.13 170 146 157 128"/>
  <path class="cls-2" d="m450.76,120c-1.76,0-77.67,20.07-77.67,20.07,0,0,12.57,21.2,14.74,20.07,2.17-1.13,62.93,6.24,62.93,6.24v-46.37Z"/>
  <path class="cls-1" d="m217.72,95.73l.21,3.08-.66,2.89-1.64,1.58-3.4.9-4.37-3.23-.12-3.66c-.01-.55.11-1.07.3-1.57l-13.4-.02,2.52,7.88,15.26,7.25,12.88-2.65,8.39-12.43-15.98-.02Z"/>
  <path class="cls-1" d="m313.75,91.87l.1.86-1.28,5.6-3.53,2.98-7.48,1.53-9.9-6.59-.29-4.12-14.67.17,2.8,3.78c2.37,3.2,5.65,5.62,9.41,6.96l11.56,4.1,14.32-2.16c3.54-.53,6.7-2.53,8.7-5.5l5.25-7.77-14.97.17Z"/>
  <polygon class="cls-1" points="268 103 244 148 277.02 150.21 271.89 103 268 103"/>
</svg>