<?xml version="1.0" encoding="UTF-8"?>
<svg id="_图层_2" data-name="图层 2" xmlns="http://www.w3.org/2000/svg" viewBox="0 0 574 278">
  <defs>
    <style>
      .cls-1 {
        fill: #fff;
      }
    </style>
  </defs>
  <polygon points="531.64 0 531.51 396 77.28 396 77.28 0 531.64 0"/>
  <g>
    <path class="cls-1" d="m180.9,106.78l11.44-.31,16.25,23.97,3.42,5.19,2.87,5.44.72-.02-.95-35.19,12.16-.33,1.59,59.18-11.44.31-16.42-24.21-3.42-5.19-2.71-5.37-.8.02.95,35.35-12.08.33-1.59-59.18Z"/>
    <path class="cls-1" d="m233.82,148.76c-.29-10.77,4.42-16.52,13.73-16.77,9.31-.25,14.32,5.24,14.61,16.01.29,10.77-4.42,16.52-13.72,16.77s-14.32-5.3-14.61-16.01Zm18.5-.5c-.2-7.38-1.06-8.93-4.57-8.84-3.57.1-4.35,1.7-4.15,9.07.2,7.38,1.06,8.94,4.63,8.84,3.51-.09,4.29-1.7,4.09-9.08Z"/>
    <path class="cls-1" d="m269.02,154.9l-.4-14.7-4.51.12-.22-8.2,5.09-.14,1.04-9.23,7.88-1.15.27,10.13,5.91-.16.22,8.2-5.85.16.33,12.24c.09,3.22,1.11,4.31,3.22,4.25.76-.02,1.75-.17,2.8-.49l.19,7.03c-1.57.45-3.5.68-5.37.73-6.79.18-10.45-2.88-10.61-8.79Z"/>
    <path class="cls-1" d="m299.81,119.45l14.46-.39,7.12,20.84,1.54,7.22h.41s1.15-7.31,1.15-7.31l.97-3.31,5.14-17.89,14.34-.39,1.17,43.32-9.37.25-.84-31.09h-.35s-1.73,7.5-1.73,7.5l-.97,3.31-5.25,18.3-8.43.23-7.31-21.24-2.19-7.38h-.35s.84,31.1.84,31.1l-9.19.25-1.17-43.32Z"/>
    <path class="cls-1" d="m350.44,145.97c-.3-11.01,4.41-16.82,13.89-17.07,8.2-.22,12.07,4.42,12.35,14.78.06,2.34.03,3.22-.17,4.52l-16.1.43c.41,4.56,1.68,5.7,5.19,5.6,2.22-.06,6.01-.81,9.97-1.91l.48,7.13c-2.9,1.13-7.33,2.01-10.78,2.11-9.48.26-14.55-5.11-14.83-15.59Zm9.75-3.31l7.84-.21c-.24-4.68-1.28-6.35-3.74-6.29-2.75.07-3.94,1.75-4.1,6.5Z"/>
  </g>
</svg>