<?xml version="1.0" encoding="UTF-8"?>
<svg id="_图层_2" data-name="图层 2" xmlns="http://www.w3.org/2000/svg" viewBox="0 0 574 250.81">
  <defs>
    <style>
      .cls-1 {
        fill: red;
      }
    </style>
  </defs>
  <path d="m178.5-334.19V315.81h31.83L227.5,11.81h14.59s17.08,162.02,15.83,304h160.58V-334.19h-240Z"/>
  <path d="m161.88,69.31s-8.2-8.85-13.08-20.5h5.7v-462h-61V48.81h3.46l3.54,21,9,18,12,2v-5.76l-6-10.24,2-9,8,14s7,10,8,10,8-4,8-4c0,0,1-3.88,0-4.44s-4-9.56-4-9.56l-3-10,6-1s2,6,3,6,1,7,3,9,7,5.95,8,6.98c1,1.02,7-.98,7-.98l2-4-1.62-7.5Z"/>
  <path class="cls-1" d="m202.45,252L226.26,7.33l26.9.51,14.48,245.4-.04,2.34-16.76-.32-3.46-57.59-22.76-.43-5.54,57.41-16.66-.32.04-2.34Zm42.48-100.18l-5.52-101.43-1.14-.02-3.28,36.39-6.1,64.76,16.04.31Z"/>
</svg>