<?xml version="1.0" encoding="UTF-8"?>
<svg id="_图层_2" data-name="图层 2" xmlns="http://www.w3.org/2000/svg" viewBox="0 0 574 277.88">
  <defs>
    <style>
      .cls-1 {
        fill: #fff;
      }

      .cls-2 {
        fill: red;
      }
    </style>
  </defs>
  <path class="cls-2" d="m210.5-108.12l-10,44h0c-26.19,11.96-43,38.1-43,66.9v334.78l42-20.41,42,20.41,39-28.91,38,34.24,16-14,17.9,14,28.1-21,24.62,21,23.38-17,29.91,17V9.87c0-33.25-22.31-62.36-54.41-71.01l-11.08-2.99-4.42-37"/>
  <g>
    <path class="cls-1" d="m194.95,156.37l1.24-58.39c6.9-.65,12.02-.94,16.42-.85,16.24.35,23.24,5.7,23,17.37-.14,6.72-3.11,10.98-8.83,12.38v.32c6.52,1.42,9.94,6.45,9.77,14.21-.24,11.28-9.08,16.85-26.04,16.49-5.04-.11-10.79-.63-15.57-1.53Zm27.55-15.98c.12-5.6-2.4-7.73-9.59-7.88l-4.88-.1-.31,14.56c1.11.34,2.87.46,5.27.51,6.08.13,9.41-2.36,9.51-7.08Zm-9.46-17.88c6.24.13,8.36-1.66,8.48-7.42.11-4.96-2.41-7.25-7.6-7.36-1.6-.03-3.2.09-5.37.29l-.31,14.4,4.8.1Z"/>
    <path class="cls-1" d="m254,114.68l10.07.21-.92,43.33-10.07-.21.92-43.33Z"/>
    <path class="cls-1" d="m268.26,157.21l.15-7.14c2.44,1.05,6.23,1.83,9.27,1.9,2.4.05,3.65-.74,3.68-2.38.11-5.33-12.9.66-12.61-13.04.14-6.62,4.2-10.34,11.23-10.19,2.75.06,6.31.66,9.46,1.49l-.15,7.14c-3.73-.96-5.42-1.23-7.35-1.27-2.63-.06-4.06.91-4.1,2.61-.11,5.09,13.12.28,12.85,12.75-.14,6.56-4.84,10.21-12.98,10.03-3.1-.06-6.37-.72-9.45-1.9Z"/>
    <path class="cls-1" d="m307.51,115.82l10.07.21-.74,34.95,13.35.29-.18,8.37-23.42-.5.92-43.33Z"/>
    <path class="cls-1" d="m337.8,170.7v-.47s3.63-10.35,3.63-10.35l-10.06-31.08.02-.76,9.95.21,4.42,17.78.61,4.29h.58s.85-4.25.85-4.25l5.18-17.58,9.95.21-.02.76-15.39,43.43-9.74-2.2Z"/>
    <path class="cls-1" d="m365.7,128.77l9.78.21-.67,31.62-9.78-.21.67-31.62Zm-.27-9.38c.08-3.69,1.69-5.18,5.44-5.1,3.81.08,5.41,1.64,5.33,5.33-.08,3.63-1.69,5.18-5.56,5.1-3.69-.08-5.29-1.64-5.22-5.32Z"/>
    <path class="cls-1" d="m380.92,129.09l8.26.18.45,3.41h.23c5.16-3.11,7.05-3.83,10.27-3.76,4.45.1,7.13,3.37,7.02,8.59l-.51,23.77-9.78-.21.43-20.2c.05-2.52-.92-3.54-2.44-3.57-1.29-.03-2.83.64-4.37,1.49l-.47,22.13-9.78-.21.67-31.62Z"/>
    <path class="cls-1" d="m412.67,172.94l.85-7.13c3.38.83,5.89,1.24,8.12,1.29,5.21.11,7.25-2.13,7.38-7.98l.04-1.7h-.23c-1.86,2.18-4.46,3.36-7.57,3.29-6.97-.15-10.27-4.73-10.07-14.1.24-11.42,5.46-17.28,15.48-17.07,3.63.08,7.48.74,12.49,2.2l-.55,25.76c-.24,11.48-5.75,17.22-16.24,16.99-2.93-.06-6.26-.6-9.69-1.55Zm16.45-29.93l.13-6.32c-.81-.43-1.86-.68-3.03-.71-3.75-.08-4.84,1.89-5.01,9.68-.14,6.68.64,8.57,3.57,8.63,3.28.07,4.15-2.55,4.34-11.27Z"/>
  </g>
</svg>