<?xml version="1.0" encoding="UTF-8"?>
<svg id="_图层_2" data-name="图层 2" xmlns="http://www.w3.org/2000/svg" viewBox="0 0 574 251">
  <defs>
    <style>
      .cls-1 {
        fill: red;
      }
    </style>
  </defs>
  <polygon points="531.64 -278 531.51 118 77.28 118 77.28 -278 531.64 -278"/>
  <g>
    <path d="m464.39,118c-4.35,27.54-8.7,55.05-12.91,81.66,33.48-17.53,60.42-40.04,78.11-65.8l1.92-15.86h-67.12Z"/>
    <path d="m259.16,117.83H111.99l-18.58,58.93-1.11,3.7c12.88,7.52,26.87,14.26,41.8,20.1l21.11-70.72-3.09,77.18c10.27,3.37,20.92,6.32,31.89,8.84v36.13h28.9v-30.63c20.26,3.09,41.38,4.73,63.1,4.73,10.83,0,21.51-.41,32.02-1.2l6.93,27.09h93.54l-11.3-44.1c5.43-1.73,10.76-3.57,15.97-5.52l-4-84.55h-149.99Zm-46.27,81.03v-.7l1.83-1.79-1.83,2.49Z"/>
  </g>
  <path class="cls-1" d="m151.18,228.03l2.22-116.64c31.23-.67,50.25-.78,68.18-.44,95.77,1.82,131.33,18.9,130.5,62.4-.83,43.82-37.73,59.52-135.65,57.65-17.22-.33-36.22-1.16-65.25-2.98Zm137.77-56.04c.57-29.95-11.47-38.38-56.3-39.23-8.97-.17-13.99-.11-19.02.43l-1.43,75.03c12.18.86,19,1.15,25.81,1.28,38.74.74,50.37-6.93,50.95-37.51Z"/>
</svg>