<?xml version="1.0" encoding="UTF-8"?>
<svg id="_图层_2" data-name="图层 2" xmlns="http://www.w3.org/2000/svg" viewBox="0 0 574 239.5">
  <defs>
    <style>
      .cls-1 {
        fill: #fff;
      }

      .cls-2 {
        fill: red;
      }
    </style>
  </defs>
  <polygon points="160.34 239 166.04 260.74 151.27 293.64 161.71 332.92 146.12 361.82 155.54 414.73 140.35 438.35 151.7 480.36 135.31 505.14 151.66 549 403.18 549 417.1 513 400.97 487.85 412.76 446.11 397.82 422.14 407.8 369.45 392.52 340.19 403.37 301.16 388.95 267.92 396.89 239 160.34 239"/>
  <path d="m500.46,111.67l-464.05-8.5S57.54,10.59,237.9,15.16c180.36,4.57,260.41,57.37,262.56,96.51Z"/>
  <path d="m163.2,239h227.34l-.59-.77,9.93-20.29c-112.92-69.88-42.92-110.95-42.92-110.95l-154.45-3.58s69.21,41.97-45,110.38l9.54,20.42-3.84,4.8Z"/>
  <path class="cls-2" d="m385.86,112.16c-1.01-24.94-38.11-57.9-121.64-59.2-83.53-1.3-93.28,57.93-93.28,57.93l93.9.55c1.34,11.36,5.03,24.28,14.91,24.86,10.2.6,14.56-12.99,16.43-24.68l89.68.53Z"/>
  <path class="cls-1" d="m310.98,69.61l-7.94,2.01-5.67,8.04s4.54,8.04,5.67,9.04c1.13,1,12.48,3.01,13.62,3.01s10.21-7.03,10.21-7.03l1.13-5.02-2.27-7.03-6.1-3.01h-8.65Z"/>
  <path class="cls-1" d="m265.65,69.79l-1.98-2.93c-.92-1.36-2.36-2.33-4.02-2.69l-5.29-1.14c-1.89-.41-3.88,0-5.46,1.12-2.68,1.9-6.63,4.76-7.27,5.56-.98,1.23-1.13,11.17-.9,12.11.17.69,5.8,3.82,8.76,5.42,1.15.62,2.47.9,3.8.78l2.96-.25c.86-.07,1.7-.3,2.48-.68l4.54-2.22c1.49-.73,2.65-1.96,3.26-3.45l.71-1.74c.49-1.21.59-2.53.29-3.78l-1.01-4.16c-.17-.7-.46-1.36-.87-1.96Z"/>
  <path d="m326.09,80.31l-2.74.18c-1.28.08-2.35.37-2.99.79l-2.04,1.35c-.73.48-.84,1.1-.3,1.69.92,1.01,2.32,2.5,2.82,2.78.76.44,8.57,1.78,9.36,1.83.58.04,4.27-1.15,6.17-1.77.74-.24,1.24-.58,1.44-.98l.44-.87c.13-.25.13-.52,0-.79l-.77-1.58c-.25-.52-.97-1.01-2.02-1.37l-1.22-.43c-.85-.3-1.87-.5-2.92-.57l-3.5-.26c-.59-.04-1.18-.05-1.74,0Z"/>
  <path d="m272.93,80.52l-.78-1.23c-.36-.57-1.17-1.1-2.27-1.46l-3.47-1.16c-1.24-.41-2.72-.58-4.05-.47-2.27.2-5.62.52-6.24.68-.94.24-3.09,3.4-3.12,3.73-.02.25,3.28,2.09,5.02,3.05.68.37,1.55.66,2.5.82l2.13.37c.62.11,1.25.16,1.87.15l3.64-.02c1.19,0,2.26-.23,2.99-.61l.85-.45c.59-.31.94-.72.98-1.16l.15-1.48c.02-.25-.04-.51-.2-.76Z"/>
</svg>